<svg xmlns="http://www.w3.org/2000/svg" xmlns:xlink="http://www.w3.org/1999/xlink" viewBox="0,0,256,256" width="26px" height="26px" fill-rule="nonzero"><g fill="#ffffff" fill-rule="nonzero" stroke="none" stroke-width="1" stroke-linecap="butt" stroke-linejoin="miter" stroke-miterlimit="10" stroke-dasharray="" stroke-dashoffset="0" font-family="none" font-weight="none" font-size="none" text-anchor="none" style="mix-blend-mode: normal"><g transform="scale(9.84615,9.84615)"><path d="M0.8125,0c-0.44141,0 -0.8125,0.36328 -0.8125,0.8125v19.375c0,0.44922 0.37109,0.8125 0.8125,0.8125h9.1875v1h-5.8125l-3.1875,4h24l-3.1875,-4h-5.8125v-1h9.1875c0.44141,0 0.8125,-0.36328 0.8125,-0.8125v-19.375c0,-0.44922 -0.37109,-0.8125 -0.8125,-0.8125zM2.84375,2h20.3125c0.47266,0 0.84375,0.35156 0.84375,0.78125v15.4375c0,0.42969 -0.37109,0.78125 -0.84375,0.78125h-20.3125c-0.47266,0 -0.84375,-0.35156 -0.84375,-0.78125v-15.4375c0,-0.42969 0.37109,-0.78125 0.84375,-0.78125zM9.375,5.125l-5.375,5.375l5.375,5.375l1.4375,-1.4375l-3.9375,-3.9375l3.9375,-3.9375zM16.625,5.125l-1.4375,1.4375l3.9375,3.9375l-3.9375,3.9375l1.4375,1.4375l5.375,-5.375z"></path></g></g></svg>