<svg width="134.523" height="134.525" viewBox="0 0 134.523 134.525" xmlns="http://www.w3.org/2000/svg">
  <defs>
    <clipPath clipPathUnits="userSpaceOnUse" id="a">
      <path d="M-137.903 249.401h841.89v-595.276h-841.89Z"/>
    </clipPath>
  </defs>
  <path d="M0 0c0 1.22.989 2.21 2.21 2.21h98.678v-.006h.005v-98.678a2.21 2.21 0 0 0-2.209-2.21H78.181a2.21 2.21 0 0 0-2.21 2.21v51.203c0 1.969-2.38 2.955-3.772 1.563L20.225-95.682a2.21 2.21 0 0 0-3.125 0L2.603-81.184a2.21 2.21 0 0 0 0 3.125l51.574 51.574c1.392 1.392.406 3.772-1.563 3.772H2.21A2.21 2.21 0 0 0 0-20.503z" style="fill:#125ee6; fill-opacity:.98; fill-rule:nonzero; stroke:none" transform="matrix(1.33333 0 0 -1.33333 -.001 2.947)" clip-path="url(#a)"/>
</svg>
