<svg width="171.29" height="171.288" viewBox="0 0 171.29 171.288" xmlns="http://www.w3.org/2000/svg">
  <defs>
    <clipPath clipPathUnits="userSpaceOnUse" id="a">
      <path d="M-307.659 297.638h841.89v-595.276h-841.89Z"/>
    </clipPath>
    <clipPath clipPathUnits="userSpaceOnUse" id="b">
      <path d="M-307.659 233.406h841.89V-361.87h-841.89Z"/>
    </clipPath>
    <clipPath clipPathUnits="userSpaceOnUse" id="c">
      <path d="M-371.892 297.638h841.89v-595.276h-841.89Z"/>
    </clipPath>
    <clipPath clipPathUnits="userSpaceOnUse" id="d">
      <path d="M-371.892 233.406h841.89V-361.87h-841.89Z"/>
    </clipPath>
  </defs>
  <path d="M0 0c17.737 0 32.117-14.379 32.117-32.117 0-17.737-14.38-32.116-32.117-32.116-17.738 0-32.117 14.379-32.117 32.116S-17.738 0 0 0" 
    style="fill:#081b37;fill-opacity:1;fill-rule:nonzero;stroke:none" 
    transform="matrix(1.33333 0 0 -1.33333 42.821 85.643)" 
    clip-path="url(#a)"/>
  <path d="M0 0c17.737 0 32.117-14.379 32.117-32.117 0-17.737-14.38-32.116-32.117-32.116-17.738 0-32.117 14.379-32.117 32.116S-17.738 0 0 0" 
    style="fill:#081b37;fill-opacity:1;fill-rule:nonzero;stroke:none" 
    transform="matrix(1.33333 0 0 -1.33333 42.821 0)" 
    clip-path="url(#b)"/>
  <path d="M0 0c17.738 0 32.117-14.379 32.117-32.117 0-17.737-14.379-32.116-32.117-32.116-17.737 0-32.117 14.379-32.117 32.116S-17.737 0 0 0" 
    style="fill:#081b37;fill-opacity:1;fill-rule:nonzero;stroke:none" 
    transform="matrix(1.33333 0 0 -1.33333 128.465 85.643)" 
    clip-path="url(#c)"/>
  <path d="M0 0c17.738 0 32.117-14.379 32.117-32.117 0-17.737-14.379-32.116-32.117-32.116-17.737 0-32.117 14.379-32.117 32.116S-17.737 0 0 0" 
    style="fill:#081b37;fill-opacity:1;fill-rule:nonzero;stroke:none" 
    transform="matrix(1.33333 0 0 -1.33333 128.465 0)" 
    clip-path="url(#d)"/>
</svg>
