<svg width="171.288" height="171.288" viewBox="0 0 171.288 171.288" xmlns="http://www.w3.org/2000/svg">
  <defs>
    <clipPath clipPathUnits="userSpaceOnUse" id="a">
      <path d="M-480.248 234.672h841.89v-595.276h-841.89Z"/>
    </clipPath>
  </defs>
  <path d="M0 0v-24.323c0-1.128-1.364-1.693-2.162-.895L-19.361-8.02a1.266 1.266 0 0 1-1.791 0l-19.055-19.054a1.267 1.267 0 0 1 0-1.791l17.199-17.199c.798-.798.233-2.162-.895-2.162h-24.323c-.7 0-1.267-.567-1.267-1.267V-76.44c0-.699.567-1.266 1.267-1.266h24.323c1.128 0 1.693-1.365.895-2.163l-17.199-17.199a1.267 1.267 0 0 1 0-1.791l19.055-19.054a1.266 1.266 0 0 1 1.791 0l17.199 17.199c.798.798 2.162.232 2.162-.896v-24.323c0-.699.567-1.266 1.267-1.266h26.946c.7 0 1.267.567 1.267 1.266v24.323c0 1.129 1.364 1.694 2.162.896l17.199-17.199a1.267 1.267 0 0 1 1.792 0l19.054 19.054a1.267 1.267 0 0 1 0 1.791L52.488-79.869c-.798.798-.233 2.163.895 2.163h24.324c.699 0 1.266.567 1.266 1.266v26.947c0 .7-.567 1.267-1.266 1.267H53.383c-1.128 0-1.693 1.364-.895 2.162l17.199 17.199a1.267 1.267 0 0 1 0 1.791L50.633-8.02a1.267 1.267 0 0 1-1.792 0L31.642-25.219c-.798-.797-2.162-.232-2.162.896V0c0 .7-.567 1.267-1.267 1.267H1.267C.567 1.267 0 .7 0 0" 
        style="fill:#eeba4d;fill-opacity:1;fill-rule:nonzero;stroke:none" 
        transform="matrix(1.33333 0 0 -1.33333 65.991 1.689)" 
        clip-path="url(#a)"/>
</svg>
